/* XPM */
static char *d883ce098d40497fe945105939f51270LGGYho2ZiEJiLql5[] = {
/* columns rows colors chars-per-pixel */
"32 32 197 2 ",
"   c black",
".  c #180D11",
"X  c #151011",
"o  c #1C1314",
"O  c #160B0F",
"+  c #320E14",
"@  c #38181A",
"#  c #241918",
"$  c #00290B",
"%  c #092A1A",
"&  c #17231A",
"*  c #19221A",
"=  c #19281C",
"-  c #152D1E",
";  c #07361E",
":  c #2C231D",
">  c #073E21",
",  c #0C3C21",
"<  c #1C3924",
"1  c #173522",
"2  c #392C23",
"3  c #263E2A",
"4  c #3C3429",
"5  c #27292B",
"6  c #4B1A1F",
"7  c #461D1C",
"8  c #4F1D20",
"9  c #551B21",
"0  c #5B1E23",
"q  c #681D25",
"w  c #422725",
"e  c #5C2021",
"r  c #44332A",
"t  c #4C392D",
"y  c #423C36",
"u  c #5A2A35",
"i  c #6A2225",
"p  c #6C2529",
"a  c #6F2A2B",
"s  c #642325",
"d  c #7A2D2E",
"f  c #742D2B",
"g  c #7C322E",
"h  c #763321",
"j  c #7D3130",
"k  c #004814",
"l  c #034121",
"z  c #144627",
"x  c #0F5E2F",
"c  c #14542D",
"v  c #1A512C",
"b  c #1E5C33",
"n  c #146132",
"m  c #156A35",
"M  c #19753A",
"N  c #1C7A3D",
"B  c #217C3F",
"V  c #23743E",
"C  c #4F4031",
"Z  c #5A4736",
"A  c #614A38",
"S  c #227E40",
"D  c #504B49",
"F  c #53504F",
"G  c #4F5255",
"H  c #56565A",
"J  c #575758",
"K  c #4B474C",
"L  c #6F4A4E",
"P  c #615B56",
"I  c #546B5B",
"U  c #766659",
"Y  c #796147",
"T  c #5F6265",
"R  c #6C6D6F",
"E  c #6B686A",
"W  c #706C68",
"Q  c #77716C",
"!  c #6A6E72",
"~  c #6D7176",
"^  c #74767A",
"/  c #777574",
"(  c #81352F",
")  c #8B3C2E",
"_  c #873732",
"`  c #98492E",
"'  c #EF3244",
"]  c #815E41",
"[  c #935B4E",
"{  c #924542",
"}  c #8C694D",
"|  c #916A4E",
" . c #9D6E55",
".. c #AB7D5B",
"X. c #A97B55",
"o. c #B47F5B",
"O. c #805E67",
"+. c #857364",
"@. c #81786F",
"#. c #8F7E6E",
"$. c #B07861",
"%. c #DE5652",
"&. c #F2464E",
"*. c #F5665B",
"=. c #288946",
"-. c #AB815E",
";. c #BC895F",
":. c #99887A",
">. c #8A8075",
",. c #BC8B65",
"<. c #B38160",
"1. c #B38D75",
"2. c #C48C69",
"3. c #C9976D",
"4. c #D0976F",
"5. c #D59C72",
"6. c #E68E6E",
"7. c #FA8E71",
"8. c #F88E70",
"9. c #DBA175",
"0. c #D3A073",
"q. c #E4A678",
"w. c #E4A878",
"e. c #EDB17E",
"r. c #F6B47C",
"t. c #FAB77D",
"y. c #FBB87F",
"u. c #7F8185",
"i. c #86898C",
"p. c #89898B",
"a. c #8C8E90",
"s. c #95989B",
"d. c #9A9A9A",
"f. c #989897",
"g. c #8E9398",
"h. c #A49180",
"j. c #A59D99",
"k. c #BDA78F",
"l. c #9F9FA0",
"z. c #9EA1A4",
"x. c #A3A3A4",
"c. c #AFAEAD",
"v. c #A9A8A8",
"b. c #B1AFAD",
"n. c #B6B9BC",
"m. c #B8B8B8",
"M. c #AFB4B8",
"N. c #CC9B87",
"B. c #CEA682",
"V. c #D0AC8A",
"C. c #D7B496",
"Z. c #E1AF81",
"A. c #EFB581",
"S. c #EAB686",
"D. c #F6B984",
"F. c #FBBC86",
"G. c #FCBE88",
"H. c #F8B483",
"J. c #E2BDA4",
"K. c #FFC086",
"L. c #FEC48B",
"P. c #FFC98F",
"I. c #F7C089",
"U. c #FFCB92",
"Y. c #FECE9A",
"T. c #F9C494",
"R. c #FFD29D",
"E. c #FFD195",
"W. c #DFCBB9",
"Q. c #FFD2A2",
"!. c #FED4AA",
"~. c #FCD6B2",
"^. c #E5C5B1",
"/. c #B9BDC1",
"(. c #BFC2C6",
"). c #C2C3C4",
"_. c #C4C6C8",
"`. c #C6C9CC",
"'. c #C9CBCD",
"]. c #CFD2D8",
"[. c #D2D3D4",
"{. c #D4D7DA",
"}. c #D6D8DB",
"|. c #DCDCDD",
" X c #E4CEC3",
".X c #FFEACA",
"XX c #FFE7CF",
"oX c #FCE4D0",
"OX c #DAD9E4",
"+X c #DFE3E6",
"@X c #E4E4E5",
"#X c #ECECEC",
"$X c #E1E5E8",
"%X c #F6F8FA",
"&X c #FEFEFE",
"*X c #F7F6F4",
"=X c #F8F2E7",
/* pixels */
"&X&X&X&X&X&X&X&X&X&X&X&X&X&X&X&X&X&X&X&X&X%X&X&X&X&X&X&X&X&X&X&X",
"&X&X&X&X&X&X&X&X&X&X#X|.[.'._.`.[.$X%X&X&X&X&X&X&X&X&X&X&X&X&X&X",
"&X&X&X&X&X&X&X#X_.v.z.v.c.b.v.j.h.+.U @.f.'.%X&X&X&X&X&X&X&X&X&X",
"&X&X&X&X&X&X}.M.#XoX!.R.Q.Q.Y.U.T.L.G.w.,.} U a.{.&X&X%X&X&X&X&X",
"&X&X&X&X&X_.m.XXT.y.y.H.K.r.t.D.F.I.r.F.L.P.D.;.U ~ {.&X&X&X&X&X",
"&X&X&X&X_.l.~.t.F.G.F.G.2.J.R.F.G.$. XY.H.F.G.L.P.B.G n.&X&X&X&X",
"&X&X&X@Xp.!.y.G.G.F.L.9.u OX^.F.w.O.{.C.F.F.F.F.D.L.T.D }.&X&X&X",
"&X&X&Xi.C.K.F.G.F.F.G.e.1.L 2.L.D.N.{ 6.K.G.F.G.G.D.U.,.T &X&X&X",
"&X&X'.>.U.D.G.F.F.F.K.8.' %.P.F.G.*.' &.t.G.G.G.G.G.D.P.Z n.&X&X",
"%X&Xi.B.K.G.G.G.G.F.K.8.*.7.e.D.L.6.7.r.G.F.F.F.F.F.F.L.,.J &X&X",
"&X*XQ I.F.G.G.F.G.G.F.I.L.P.5. .[ 2.P.G.F.F.F.F.G.F.F.F.T.y |.&X",
"&X{.+.U.D.K.F.G.F.G.G.G.F.F.G.5.4.G.F.F.G.F.G.G.F.G.F.F.U.C n.&X",
"&X(.:.P.F.K.G.F.G.F.G.G.F.F.F.L.L.F.F.F.G.G.G.G.G.G.G.D.L.2 (.&X",
"&X/.:.U.t.F.F.G.F.F.F.G.F.F.G.F.F.F.F.F.F.F.D.F.D.D.D.E.-.5 &X&X",
"&X'.@.R.I.K.I.L.G.G.D.D.D.D.D.F.F.G.G.L.L.L.L.P.L.P.P.-.X m.&X&X",
"&X&X/ | 3.V.Z.e.F.K.L.P.P.P.P.L.L.G.A.w.0.0.0.3.,.} 4   l.&X%X&X",
"&X&X&X/ 2 7 w w r t Z Z A Z Z Z t 2 : # o . X . X . 8 @ /.&X&X&X",
"&X&X&XE i ` ( p f s s e 9 9 9 0 0 s p p a a a a d _ q < b i.&X&X",
"&X&X&Xm.+ p d d ) d _ ` ( j g j d d d ( d ( ) d p 8 < B $ J &X%X",
"&X&X|.I b = : @ 7 6 e h s p i i p p p s 0 6 7 : 3 > ; o K #X&X&X",
"*X&XR k =.B M m b c z 1 - = * * & & & 1 < c c l % 4 } S.d.#X&X&X",
"&X&X).3 z v v v c x m M N B B B S S S S x > & A ,.F.P.P.:.{.&X&X",
"&X&X&Xj.-.5.5.3.,. .Y C 3 < 1 , > , % * r | q.U.L.F.D.L.:.@X&X&X",
"&X&X&Xd.S.P.L.P.P.P.P.L.H.9.2.-.....2.q.L.U.G.F.D.F.D.F.@.%X&X&X",
"&X%X&Xx.k.L.H.F.F.D.D.F.G.L.L.P.U.P.L.L.F.D.F.G.F.D.U.3.^ &X&X&X",
"&X&X&X|.^ XXt.t.G.G.G.F.F.F.F.D.D.D.F.F.F.G.F.D.F.U.I.r (.&X%X&X",
"&X&X&X&Xd.u.=X!.y.t.F.F.G.G.G.G.G.F.F.F.F.F.G.U.L.;.2 g.&X&X&X&X",
"&X&X&X&X&Xf.! [.*X.XY.L.y.y.t.D.D.D.F.G.L.U.F.X.t G `.&X&X&X&X&X",
"&X&X&X&X&X&X[.~ R s.m.W.~.!.Q.R.Y.R.U.F.3.] t T '.&X&X&X&X&X&X&X",
"&X&X&X&X&X&X&X&X@Xc.p.^ ! R R Q Q U J G J g.+X&X&X%X&X&X&X&X&X&X",
"&X&X&X&X&X&X&X&X&X&X&X&X%X@X[.`.).`.}.*X&X&X&X&X&X&X&X&X&X&X&X&X",
"&X&X&X&X&X&X&X&X&X&X%X&X&X&X&X&X&X&X&X&X&X%X&X&X&X&X&X&X&X&X&X&X"
};
