/* XPM */
static char *_485d6e1a5f149a0a01ac8937801a7a9xu589Y0V7wHAX8Zo[] = {
/* columns rows colors chars-per-pixel */
"32 32 228 2 ",
"   c #0F1313",
".  c #131210",
"X  c #2C0C0B",
"o  c #2D0E13",
"O  c #37191A",
"+  c #2F1111",
"@  c #262728",
"#  c #2D3935",
"$  c #343639",
"%  c #343935",
"&  c #372429",
"*  c #461518",
"=  c #57191C",
"-  c #4A0D14",
";  c #51221C",
":  c #6D1720",
">  c #452022",
",  c #4C3438",
"<  c #713037",
"1  c #3F453B",
"2  c #65473F",
"3  c #3D4443",
"4  c #434447",
"5  c #46574F",
"6  c #565957",
"7  c #685254",
"8  c #5F6165",
"9  c #636966",
"0  c #736E6E",
"q  c #942B36",
"w  c #893436",
"e  c #9D323B",
"r  c #852530",
"t  c #A72E37",
"y  c #B4383C",
"u  c #B32D31",
"i  c #E6271F",
"p  c #CD2B2A",
"a  c #DB2524",
"s  c #DD2D25",
"d  c #DA2C2A",
"f  c #D62426",
"g  c #CD372D",
"h  c #D4322E",
"j  c #DB362D",
"k  c #DA2D31",
"l  c #D62C38",
"z  c #C7373A",
"x  c #D4343B",
"c  c #D53738",
"v  c #E42624",
"b  c #EA2624",
"n  c #E42C24",
"m  c #E82A26",
"M  c #E32D2B",
"N  c #EB2C2B",
"B  c #EE2628",
"V  c #F32E26",
"C  c #F3252C",
"Z  c #F22C2D",
"A  c #FF2F2D",
"S  c #E23024",
"D  c #E2342C",
"F  c #EB322B",
"G  c #FC322E",
"H  c #F5312A",
"J  c #EC2B32",
"K  c #E82636",
"L  c #FD2C34",
"P  c #F92837",
"I  c #E43434",
"U  c #EC3332",
"Y  c #E93737",
"T  c #F43233",
"R  c #FC393B",
"E  c #F63839",
"W  c #EC403A",
"Q  c #F7413E",
"!  c #9D3C45",
"~  c #B42D42",
"^  c #AB3241",
"/  c #BB3A43",
"(  c #B03D44",
")  c #C73841",
"_  c #D73841",
"`  c #E53F41",
"'  c #F73D42",
"]  c #FB3845",
"[  c #F23549",
"{  c #98565D",
"}  c #974049",
"|  c #A44648",
" . c #B74E55",
".. c #AC5A5A",
"X. c #BC5454",
"o. c #BA4B49",
"O. c #B36B5D",
"+. c #845B63",
"@. c #B55561",
"#. c #8E6970",
"$. c #A86061",
"%. c #C8434A",
"&. c #D74849",
"*. c #C34B55",
"=. c #D84E55",
"-. c #D75558",
";. c #EB4443",
":. c #E3444D",
">. c #E7434A",
",. c #F94949",
"<. c #FA514B",
"1. c #E64C57",
"2. c #FF4C51",
"3. c #FB4456",
"4. c #EA575A",
"5. c #FF5657",
"6. c #FD5C55",
"7. c #FF565A",
"8. c #FE5C5A",
"9. c #F35C56",
"0. c #E6524E",
"q. c #F6655A",
"w. c #FD625C",
"e. c #F56157",
"r. c #E2625F",
"t. c #D95861",
"y. c #FF5D61",
"u. c #FC5765",
"i. c #EA5C6A",
"p. c #D6686A",
"a. c #CE7274",
"s. c #FF6B6C",
"d. c #FF6568",
"f. c #FF6A72",
"g. c #E5767B",
"h. c #E6676E",
"j. c #82817D",
"k. c #C68E7D",
"l. c #D77C81",
"z. c #E67B81",
"x. c #999D9E",
"c. c #888C8E",
"v. c #B999A4",
"b. c #AEA9AB",
"n. c #B4ADAC",
"m. c #B7B7BA",
"M. c #B0AFAF",
"N. c #DF9191",
"B. c #D3898A",
"V. c #FF908D",
"C. c #F58E91",
"Z. c #FF9DA2",
"A. c #F39EA5",
"S. c #D7B8B2",
"D. c #E9A7A9",
"F. c #FAA8A8",
"G. c #FEAEB2",
"H. c #EBB6B5",
"J. c #FAB7B3",
"K. c #C2C1BF",
"L. c #FFC2B5",
"P. c #BDBEC1",
"I. c #D1BEC3",
"U. c #BFC2C1",
"Y. c #C1C3C4",
"T. c #C5CBC6",
"R. c #C7C9CA",
"E. c #CBCCCC",
"W. c #C9C5CB",
"Q. c #D4CBCD",
"!. c #D3D1CE",
"~. c #DAD0CF",
"^. c #CDCBD2",
"/. c #D4CDD5",
"(. c #CCD2D6",
"). c #C8D6D5",
"_. c #D2D3D3",
"`. c #DAD5D6",
"'. c #D5D3D9",
"]. c #D9D4DD",
"[. c #D3DADD",
"{. c #DBDADB",
"}. c #D6D9D5",
"|. c #C2D4C8",
" X c #FAC7C8",
".X c #FFD4CB",
"XX c #FFCDD0",
"oX c #E3DADC",
"OX c #FED4D4",
"+X c #FFDBD9",
"@X c #D5E1DF",
"#X c #DAE2D7",
"$X c #CEE1DD",
"%X c #FFEADE",
"&X c #FFF3DB",
"*X c #DDD7E1",
"=X c #DCDDE3",
"-X c #D4DEE0",
";X c #FED8E3",
":X c #D5E4E1",
">X c #DCE2E4",
",X c #DCECE5",
"<X c #DEE6EC",
"1X c #DFEBEB",
"2X c #E3E4E4",
"3X c #E4E5EA",
"4X c #E4EBEA",
"5X c #EAECEA",
"6X c #E3ECE5",
"7X c #F9E9E9",
"8X c #E8F2EA",
"9X c #FFF4EC",
"0X c #FFFAEC",
"qX c #F5F2EF",
"wX c #EAECF0",
"eX c #F5EDF5",
"rX c #ECFFFF",
"tX c #E8FBF9",
"yX c #F4F3F3",
"uX c #FDF5F4",
"iX c #F4FFF4",
"pX c #FEFCF5",
"aX c #FEF5FD",
"sX c #F4FEFD",
"dX c #F9FEFF",
"fX c #FEFEFE",
"gX c #FEFDFD",
"hX c #F4F4FA",
/* pixels */
"fXsXsXsXrXdXfXhXsXfXuX7XXXG.Z.Z.V.Z.G..X&X0X0XpXyXfXaXaXaXfXrXtX",
"fXfXsXsXdXdXaXfXaX+XH.N.g.h.4.4.4.i.r.a.B.D..XuXgXuXaXaXaXaXsXrX",
"gXgXpXgXiXgXuXOXF.z.-.%.&.;.,.' >.0.=.-.-.t.g.A.+XpXfXgXfXaXfXsX",
"aXgXgXpX0X0X.Xg.-.:.&.;.Q Q R R 2.w.s.s.d.u.1.t.l. XuXuXgXgXaXfX",
"fXfXiXgX9XH.p.=.&.E W W D F H L ,.8.d.y.d.f.f.f.t.a.G.7XuXuXpXgX",
"dXsXfXhXH.a.%.;.Y U D D D D H T R 7.d.5.6.s.s.f.f.1.p.G.9XpXpXiX",
"dXfXhX Xa.*.&.K U U D D D Y Z N U <.8.6.e.q.q.w.f.f.4.p.J.0XpXiX",
"sXaX;XB. .%._ k I F D D D F J J ' <.6.9.e.q.w.w.u.d.u.-.z.OXpX0X",
"fXgXD.@.*.o.g g D N N N M J P P ' <.e.9.9.6.w.6.y.d.,.>.i.C.aXgX",
"pX+Xa.*.%.) g g d m B v M N P P T ,.w.q.6.5.5.6.w.w.' [ 3.h.XXuX",
"&XS. .%._ c g g n v m m M M N Z C R 2.5.5.8.5.6.6.<.R ] ] 1.D.9X",
"&XB.o.z c p h p d s v m D M M m C C E R 3.7.8.5.<.Y A L ] [ k.%X",
".XO.o.) ` _ c h k d f v M M n m N B C P ] ] 2.<.U F A G ] 1.h. X",
"L.O.o.*.u q t %.z x k d d s n n n N C C P P [ E F V A G ] <.4.Z.",
"H.$...w - * * ; e ) _ l p d n i n m Z J K K J U H V G G E Q 0.V.",
"D.{ { + o % 1 O = q ~ z z h N m S s n M N J J F H V V G T W 0.V.",
" X#.2 o 0 ^.=XM., - | ( u h M b S S S S s m F N v T v Y ` &.r.V.",
"I.7 & # I.=X].eXS.> < ^ u c f m a a s s I j j M U I ` z *.*.w J.",
"].9   5 -X$X-X(.7X+.= ! o.z _ l l [ l p x x _ z ) / ( ! < ; 2 %X",
",XR.3 3 $XU.-X=X].v.* < ! q t ( ~ ~ ~ ^ ^ e q q r : - = O 7 2XsX",
"fX!.n.@ b.<X*X(.I.M.& . o & X > * * O O X X X X o O , #.~.dXrXrX",
"uX2XQ., 6 ]./.I.'.c.@ 4 $ $ @ @ @ @ # % 1 6 0 j.b.^.gXfXgXdXrXsX",
"iXtX).x.@ 8 P.P.P.4 @ I.<X).[.(.'.].=X3X6XyXiXgXaXuX7XyXaX3XsXdX",
"sXsX).).c.  $ 8 $   8 <X[.<X<X<XwX3X5X4X4X8X5X5X5XeXaXuXyXqXfXfX",
"gXdX3XR.'.x.$     9 P.1X>X[.>X>X:X:X1X1X,X,X,X8X6XqXqX5X5XuXgXgX",
"aXaXfXyXY.R._.M.M.|.}.}.(.`.[.}.@X@X@X:X:X,X6X6X5X6X2X3XqXgXgXgX",
"aXaXfXaXE.m._._.}.}.!._.`.oXoXoX=X=X=X3X4X3X=X=X4X>X>X5XdXfXgXfX",
"aXaXaXfXfX{.Y.T.E.E.!.!.!.~.~.`.].].].].*X=X3X3X'.=X5XsXfXfXfXfX",
"fXaXfXfXfXyX{.m.Y.T.E.`._.!.!.`.].*X*X*X].].].].].wXdXfXaXfXfXfX",
"gXgXfXgXfXfXfXyXR.P.m.U.E.!.(.(._.'.].]./././.`.yXaXfXfXfXfXfXfX",
"iXpXiXgXfXsXyXdXsX3X^.P.m.U.U.U.T.Y.U.S.E.oX5XgXfXfXfXgXgXgXfXpX",
"iXiXiXsXsXdXfXsXfXaXgXhX>X'.E.R.U.T.).,XqXuXgXgXgXgXpXgXpXgXpXgX"
};
