/* XPM */
static char *e7753d43a0c743b69c0ef0f5d6ca38d4XE3xnpr2Ulr0Y0xZ[] = {
/* columns rows colors chars-per-pixel */
"32 32 211 2 ",
"   c #090000",
".  c #11010C",
"X  c #0F0E16",
"o  c #220302",
"O  c #3F0A00",
"+  c #351B14",
"@  c #3F170B",
"#  c #372619",
"$  c #1A1D22",
"%  c #1F2E2B",
"&  c #242F29",
"*  c #352D23",
"=  c #392923",
"-  c #3B2324",
";  c #352831",
":  c #333937",
">  c #2D3235",
",  c #5E0A00",
"<  c #4C1305",
"1  c #600000",
"2  c #750D0A",
"3  c #79271B",
"4  c #40352F",
"5  c #543331",
"6  c #602C30",
"7  c #643B38",
"8  c #723F31",
"9  c #7A3D33",
"0  c #763028",
"q  c #3B4836",
"w  c #45402D",
"e  c #714032",
"r  c #413944",
"t  c #464446",
"y  c #555957",
"u  c #4B4F4C",
"i  c #724D45",
"p  c #686252",
"a  c #5F5F61",
"s  c #675E61",
"d  c #5F7173",
"f  c #5D6769",
"g  c #676569",
"h  c #627368",
"j  c #716F74",
"k  c #6D757C",
"l  c #7C7C7C",
"z  c #8B1511",
"x  c #B91215",
"c  c #A4271C",
"v  c #BE2015",
"b  c #AC1B23",
"n  c #B61B23",
"m  c #942D29",
"M  c #9B342A",
"N  c #84393A",
"B  c #883434",
"V  c #973533",
"C  c #A8272A",
"Z  c #B72628",
"A  c #B1372D",
"S  c #C90D08",
"D  c #DC0D02",
"F  c #D90A07",
"G  c #D9130D",
"H  c #CE0F1A",
"J  c #D60816",
"K  c #C6171B",
"L  c #DA1316",
"P  c #D41519",
"I  c #D9161D",
"U  c #ED0302",
"Y  c #E90805",
"T  c #F50304",
"R  c #FA0502",
"E  c #F60D01",
"W  c #F2030A",
"Q  c #F60A0D",
"!  c #FB090D",
"~  c #FD0808",
"^  c #FB140A",
"/  c #EC0C12",
"(  c #F90A14",
")  c #E31317",
"_  c #FF1619",
"`  c #CF221A",
"'  c #F7241D",
"]  c #E32117",
"[  c #CA1826",
"{  c #D10B22",
"}  c #F41921",
"|  c #D5212A",
" . c #DF332F",
".. c #D92E38",
"X. c #C93537",
"o. c #DC353F",
"O. c #F92928",
"+. c #FC3934",
"@. c #87493C",
"#. c #B9423C",
"$. c #CD423F",
"%. c #DB423C",
"&. c #F8423E",
"*. c #CB3E47",
"=. c #F93944",
"-. c #80737A",
";. c #D95B5F",
":. c #FA4448",
">. c #FF534E",
",. c #FF4C5B",
"<. c #FE5A57",
"1. c #ED585E",
"2. c #D05F65",
"3. c #D06A66",
"4. c #FF6463",
"5. c #FF6C6B",
"6. c #FF7974",
"7. c #FD777B",
"8. c #9B8C75",
"9. c #A58D73",
"0. c #FB827F",
"q. c #6E7D80",
"w. c #837880",
"e. c #FF7580",
"r. c #FF7D8D",
"t. c #7C8686",
"y. c #7A8990",
"u. c #838383",
"i. c #8A8B8B",
"p. c #878C86",
"a. c #978A89",
"s. c #8A928D",
"d. c #92928E",
"f. c #898E91",
"g. c #949494",
"h. c #9A9494",
"j. c #9C9C9C",
"k. c #9B9997",
"l. c #968E9B",
"z. c #A3989A",
"x. c #A58F84",
"c. c #96A19D",
"v. c #A79DA5",
"b. c #9AA4A4",
"n. c #9FB1BB",
"m. c gray64",
"M. c #ACACAC",
"N. c #A8A7A9",
"B. c #B4A8A6",
"V. c #B6ADAD",
"C. c #BCB0A0",
"Z. c #A6A9B1",
"A. c #ACB8B5",
"S. c #B3B3B3",
"D. c #BAB3BA",
"F. c #BCBCBC",
"G. c #B9B4B9",
"H. c #B6ACB4",
"J. c #C49F8C",
"K. c #FF8788",
"L. c #FF969B",
"P. c #FF9898",
"I. c #EA989C",
"U. c #FDA09B",
"Y. c #C4BCBC",
"T. c #FFA9AA",
"R. c #FFB3AF",
"E. c #FFACB2",
"W. c #FFB5B7",
"Q. c #BCC2BB",
"!. c #D2C1AF",
"~. c #FFC4BD",
"^. c #ACB9C2",
"/. c #C4C4C4",
"(. c #CCCCCC",
"). c #C6C8C7",
"_. c #D4C9CB",
"`. c #CBCDD3",
"'. c #D4D4D3",
"]. c #D4D3DA",
"[. c #DBDBDB",
"{. c #D1DAD9",
"}. c #D3CED5",
"|. c #FFC6C5",
" X c #FFD4CF",
".X c #E3DAD8",
"XX c #FFD3D3",
"oX c #FFDED9",
"OX c #FAE4DF",
"+X c #E3E6DF",
"@X c #DAD8E3",
"#X c #F4D9E3",
"$X c #E4E4E4",
"%X c #ECECEC",
"&X c #E8E7EA",
"*X c #FFE4E3",
"=X c #FEEBEE",
"-X c #FCEBE9",
";X c #EFFBEF",
":X c #FFF3EB",
">X c #F9F2E8",
",X c #FDEEF2",
"<X c #ECF6F8",
"1X c #F3F3F3",
"2X c #FDF4F3",
"3X c #FDFCF3",
"4X c #F6F5FD",
"5X c #FEF5FB",
"6X c #F4FDFD",
"7X c #FDFDFD",
"8X c #F5FEF4",
/* pixels */
":X:X7X6X6X6X7X2XOX~.P.4.+._ _ W / } O.:.6.R.OX=X5X=X3X7X8X8X7X7X",
"3X3X8X8X6X5X=X X0.*.S Y U E ( W / F L  .X.#.3.I.oX2XOX3X;X7X7X7X",
"7X7X6X3X-XXX7.K S F / ! T T Q Y / O.5.T.|.P.2.A *.L.-X3X7X7X1X7X",
"6X7X:X:XR.X.L / Q ( ~ T T T T U O.>.K.R.|.|.r.:.H K 3.oX:X7X7X7X",
"7X5X=XT.K / Q U Q U W ! ~ T T ^ ' >.r.L.T.L.7.>.O.Y G X.XX2X5X7X",
"7X,XW.n L Y D ] ] P J J ( ~ T E ' &.4.e.r.e.4.+.^ R ^ G $.OX5X5X",
"-X*X*.H P K z , 1 3 m n L ! R E Y O.:.,.,.,.=.O.Y E U U ) 1.-X7X",
">X3.[ H v , < 9.Y.x.i 0 n P S D L I | ..*...| J G Y Y E Y H E.2X",
"W.Z J [ 2 o J.6X3X7X.X7 B z A c c C M M V C C Z Z v S D ) x 2.*X",
"7.C n z < + /.<X4X@X4Xs 5 7 8 0 9 9 e e 9 N N N @.m A Z [ A V W.",
"@.O @ + o . w.%X4X6XG.$ & > = : * * - - - 4 * = # 6 6 6 7 i 5 J.",
"+ * q u g ; . > y t X > q.d q.f h h g g s a y y y t r t % & w 8.",
"t t s.A.M.v.-.4 > > j M.v.l.Z.Z.c.b.N.Z.n.N.M.B.D.^.^.Z.A.u   p ",
"'.m.t.t.v.D.Y.(.).{.[._._.#X].`.{.{.}.}.`.(.)./.D.Z.b.y.k f d.%X",
"7X7X6X$X_.Y.N.N.b.c.g.z.v.h.k.i.f.f.a.a.a.8.p.p.i.l.h.B.'.1X7X6X",
"7X6X7X7X7X7X7X8X6X7X7X=X1X&X+X1X<X%X%X*X.X(.Q.A.A.N.V.C.Y.2X`.4X",
"7X7X7X7X5X6X7X7X4X7X7X7X7X7X7X5X&X}.V.z.g.d.d.g.j.j.N._.$XQ.M.$X",
"7X7X7X7X7X7X7X4X7X7X7X2X%X{.S.g.q.u.d.h.j.j.m.M.S.'.+X).G.M.M.'.",
"7X7X7X7X7X7X7X7X7X%X(.N.d.8.u.p.g.k.j.j.j.m.F.'.{.'.).V.M.S.S./.",
"7X7X6X7X7X7X&X].m.g.u.w.q.y.g.c.j.j.j.S.'.$X$X[.'.F.S.S.G.S.S.).",
"1X6X7X7X+XF.k.l u.u.u.d.k.g.k.j.M.).[.&X+X'.(.(.).)._.^.G.A.S.).",
"7X7X$XS.u.l u.u.u.i.g.j.m.M.).+X&X&X$X+X[.[.'.(._.(.).^.Q.G.S.'.",
"1X/.g.l l u.i.p.j.m.G.).[.&X%X&X&X%X$X[.].'.[.[.(.).).!.F.M.F.1X",
"&XM.u.g.z.m.S.'.{.$X1X1X1X1X%X&X$X$X$X+X$X$X[.(.'.'.).F./.F./.7X",
"6X%X$X&X&X$X%X1X&X&X$X$X$X%X1X%X&X$X$X$X$X[.[.'.'.).).)././.$X7X",
"7X3X1X1X%X$X'.'.'.'.'.[.$X1X%X$X%X&X$X$X$X+X[.[.{.'.(././.[.1X7X",
"7X5X6X4X1X$X'.)././.(.+X%X1X1X%X%X%X$X&X$X$X[.].[.'.(.).[.6X7X7X",
"7X7X7X2X1X1X%X+X[.&X%X1X1X1X%X%X%X%X&X$X$X$X$X[.'.'.'..X2X7X7X7X",
"7X7X7X6X6X7X3X1X1X4X7X1X1X%X%X%X%X%X%X&X&X$X+X[.[.[.$X7X7X7X7X7X",
"5X7X7X7X5X7X1X1X1X%X%X%X1X2X1X1X%X%X%X&X$X$X$X[.&X1X7X7X7X7X7X7X",
"7X7X7X7X7X7X7X7X8X2X1X1X1X1X1X&X%X%X%X%X%X%X%X1X6X7X7X7X7X7X7X7X",
"7X7X7X7X7X7X7X7X7X5X6X7X1X1X1X8X1X1X1X1X1X7X7X7X7X7X7X7X7X7X7X7X"
};
