/* XPM */
static char *rsz_1picsart_23_02_20_17_53_19_3311676912256[] = {
/* columns rows colors chars-per-pixel */
"32 32 232 2 ",
"   c #191500",
".  c #1F1110",
"X  c #160D01",
"o  c #280600",
"O  c #310000",
"+  c #3C0900",
"@  c #211C01",
"#  c #351416",
"$  c #2A2A05",
"%  c #392206",
"&  c #342D0D",
"*  c #373624",
"=  c #471500",
"-  c #571900",
";  c #4A0D06",
":  c #650700",
">  c #750803",
",  c #771A00",
"<  c #672000",
"1  c #6D2800",
"2  c #772700",
"3  c #643702",
"4  c #703A00",
"5  c #5F3423",
"6  c #4B330F",
"7  c #5F5000",
"8  c #584D1B",
"9  c #544B0C",
"0  c #664704",
"q  c #6F5705",
"w  c #6F5316",
"e  c #59483B",
"r  c #4E502C",
"t  c #726C2C",
"y  c #494949",
"u  c #575657",
"i  c #50534F",
"p  c #6A5252",
"a  c #576149",
"s  c #65655A",
"d  c #6A6446",
"f  c #4F5764",
"g  c #686873",
"h  c #6E7279",
"j  c #7B7B7B",
"k  c #696D6A",
"l  c #9A0B00",
"z  c #A31E05",
"x  c #B51907",
"c  c #B91C16",
"v  c #883B00",
"b  c #AD2800",
"n  c #BC2306",
"m  c #B63B01",
"M  c #BF201C",
"N  c #BC3233",
"B  c #C32317",
"V  c #C13435",
"C  c #844500",
"Z  c #885B01",
"A  c #9C5802",
"S  c #AA4F16",
"D  c #986904",
"F  c #8C6911",
"G  c #B0790F",
"H  c #B5573D",
"J  c #846B38",
"K  c #B8732A",
"L  c #87562E",
"P  c #C85711",
"I  c #CF6D0C",
"U  c #C87924",
"Y  c #E06623",
"T  c #C43B45",
"R  c #876A44",
"E  c #967645",
"W  c #A67E4A",
"Q  c #867879",
"!  c #894E54",
"~  c #CB4D4C",
"^  c #D05663",
"/  c #CB6E70",
"(  c #7D827C",
")  c #B0890F",
"_  c #9F802D",
"`  c #B38924",
"'  c #B88C35",
"]  c #B08D2D",
"[  c #B1A536",
"{  c #CB991C",
"}  c #C19B0A",
"|  c #D8AB1C",
" . c #D79528",
".. c #DA9637",
"X. c #CE9032",
"o. c #E4932A",
"O. c #CDAA2A",
"+. c #DBA22A",
"@. c #C7A634",
"#. c #D4B02F",
"$. c #E6A635",
"%. c #FAAB32",
"&. c #FDB83B",
"*. c #E8A523",
"=. c #DCC61B",
"-. c #ECC71C",
";. c #F8CD19",
":. c #FED51C",
">. c #F6D31F",
",. c #DBC73D",
"<. c #F1CC2B",
"1. c #FFC629",
"2. c #F4D423",
"3. c #FDD424",
"4. c #FCD12B",
"5. c #FDD82A",
"6. c #F7D826",
"7. c #E6C636",
"8. c #F7CD3A",
"9. c #FAC833",
"0. c #E9D238",
"q. c #FFDA35",
"w. c #FFD33C",
"e. c #F9D635",
"r. c #E6CF27",
"t. c #F7E02C",
"y. c #F9E238",
"u. c #B5A64E",
"i. c #818576",
"p. c #94846A",
"a. c #A2976A",
"s. c #BEB46D",
"d. c #B18E4C",
"f. c #D79244",
"g. c #C79151",
"h. c #DAAE44",
"j. c #D8B844",
"k. c #C7AB57",
"l. c #E7BA45",
"z. c #FFBC42",
"x. c #E5877F",
"c. c #D8AC6A",
"v. c #C8A47B",
"b. c #C6B46D",
"n. c #D5C754",
"m. c #EBC646",
"M. c #FFCA44",
"N. c #F7C745",
"B. c #EAD947",
"V. c #FFDC42",
"C. c #F6D945",
"Z. c #E7CA55",
"A. c #F2C656",
"S. c #E9D456",
"D. c #FCDC58",
"F. c #FFE04C",
"G. c #DBD074",
"H. c #E1CC65",
"J. c #E7D876",
"K. c #F1DA7A",
"L. c #E2D964",
"P. c #7D7C84",
"I. c #D57C80",
"U. c #878986",
"Y. c #93948B",
"T. c #8A8B95",
"R. c #93938C",
"E. c #A3939D",
"W. c #9CA391",
"Q. c #A6A996",
"!. c #B9B48E",
"~. c #9B9EA5",
"^. c #A59FA9",
"/. c #A2A1A4",
"(. c #A5AAA9",
"). c #B8A9AB",
"_. c #ACB6A9",
"`. c #AAACB6",
"'. c #B5B7B4",
"]. c #D28F95",
"[. c #EE9096",
"{. c #C3A084",
"}. c #CEBCB5",
"|. c #F7BCB8",
" X c #B9C0AE",
".X c #ECD490",
"XX c #EFE589",
"oX c #C5C5B7",
"OX c #D3C7BB",
"+X c #CDD7BC",
"@X c #F7DCA7",
"#X c #FEC3BA",
"$X c #FBCEB1",
"%X c #F7E9A7",
"&X c #FCE8B7",
"*X c #FFF3B9",
"=X c #CECD8A",
"-X c #B7BAC4",
";X c #C9CAC8",
":X c #CFD4C9",
">X c #D4D2C4",
",X c #D7D9D6",
"<X c #D0CCD2",
"1X c #FFC8CA",
"2X c #F7DADA",
"3X c #EDD2D5",
"4X c #DCE4D8",
"5X c #FFF9CE",
"6X c #E6E6DB",
"7X c #FBEDD8",
"8X c #FFF7D6",
"9X c #FFDBE1",
"0X c #E8E9EA",
"qX c #FDEAE7",
"wX c #EDF7EB",
"eX c #FFF4E3",
"rX c #FFFBE4",
"tX c #FFF5ED",
"yX c #F5FCEB",
"uX c #FDFEED",
"iX c #F5F6EC",
"pX c #FCECFE",
"aX c #F4ECF5",
"sX c #F7F3F5",
"dX c #FCF5F4",
"fX c #F5FDF3",
"gX c #FDFDF4",
"hX c #F5F5FB",
"jX c #FEF5FE",
"kX c #F5FDFE",
"lX c #FEFDFD",
"zX c #E8F1F9",
/* pixels */
"lXgXfXwXlXjXjXlXgXgXfXgXdXqX9X9XpXtXeXuXlXlXlXlXdXgXkXkXlXlXgXgX",
"lXlX4X_.:XuXdXtXtXdXgXqX1X[.I./ I.].#XqXpXpXpXgXlXlXkXkXkXlXlXtX",
"lXlX,Xa r =X&X5X7XtX1X[.^ T V V N T ~ [.1XpXjXgXlXsXyXfXgXlXlXlX",
"aXlXlXQ.t u.G..X%X$X[.~ N M x x c B B B / #XeXuXgXlXgXgXgXgXhXlX",
"lXhXgXuX!.s.n.D.A.f.S z c n z l l x B b S g..X*X7X>X4XyXuXgXlXlX",
"kXlXfXuX8X%XJ.S.D.$.P m P Y I I m b n I o.#.Z.J.a.a ( 0XgXgXlXkX",
"fXlXgXdXyX8X&Xc.l.z.%.%.z.M.w.w.N.%.%.N.D.V.C.S.J e T.zXlXfXlXlX",
"kXfXlXlXgXeX1Xd.D { 9.9.4.3.2.2.e.w.<.| {  .+.X.b.2XlXkXjXgXkXfX",
"lXlXlXjXlX7X{.w = G 9.<.3.5.:.:.2.5.<.D < , , H |.jXlXkXlXjXlXkX",
"jXlXlXjXjX3XR = ; ' A.w.2.:.:.:.5.0.N.D : > > > ].pXlXhXjXlXlXkX",
"kXlXlXjXjXOX5 O - X.` @.r.t.:.5.7.) X.K , > > : ! 3XjXqXeX7XrXuX",
"gXlXlXjXjX).; + 1 f.Z D 0.y.-.e.@.Z G U < : > 2 L .X*X%X@X@X5XrX",
"kXkXlXgXlX}.# O 1 f. .} B.0.0.0.B.O.$.X.v A ) ) #.S.B.B.S.K.5XrX",
"kXkXgXdXsX3Xp O 1 S *.9.F.0.0.C.F.N. .A C h.V.e.w.6.t.t.0.K.8XgX",
"kXlXgXdXhXlXE.# - v I 1.:.;.<.8.V.&.U 2 4 h.w.;.1.1.5.y.B.XXuXlX",
"lXfXgXgXgXlX^.# = K ..1.;.:.4.w.w.M...v 3 ' 7.-.1.e.<.0.L.%XdXjX",
"lXlXgXiXlX:Xu a {.c.l.w.5.3.q.q.y.8.m.F 3 d.[ ) ) h.m.n.H.*XaXjX",
"lXlXkXfXkXR.Q OX5X.Xm.<.3.2.q.y.6.e.C.` 0 W u.q 0 b.XXJ..X7XjXjX",
"sXlXfXkXkX(.(.2X@XK.7.r.2.e.7.7.<.<.e.#.Z ' k.q 6 OX8X8X8XfXgXlX",
"lXgXlXkXkX`.j oX%XH.0.=.r.C.j.S.7.8.e.7.' k.b.w e 3XjXlXlXlXfXgX",
"gXdXlXlXkX-Xy a b.n.B.B.,.[ w q ` #.D.j.d.E 8 % Q pXlXjXkXkXfXyX",
"lXlXjXlXkXzXg X $ t u.L.[ 7 t R w _ Z.k.J % o e <XlXlXlXlXkXfXyX",
"lXlXfXlXkXkX/.y X     9 8 d OX3Xp.8 8 &   . s >XlXjXdXgXlXlXyXyX",
"lXsXlXgXfXlX;Xh s r &   & Q ,XzX(.* $ & u ^.6XqXdXuXgXgXsXlXlXgX",
"lXlXgXgXgXgXzX~.g P.U./.U.y `.-XP.i Q.+XwXkX,XyXuXgXlXlXlXlXlXjX",
"lXlXgXgXgXlXlX<XT.g T.`./.g u y f (.yXuX0X,X6XyXgXgXlXlXlXlXlXlX",
"gXgXgXgXlXlXlXlX-Xg h U.`._.i.Y.-XzXwX4X:X,XlXfXgXlXlXlXlXlXlXlX",
"gXlXlXlXlXjXlXlXfX`.( s ( W. X:X,X,XoX'.,XzXlXlXlXlXlXlXlXlXlXlX",
"gXlXlXlXlXlXkXjXlXfXoXY.j s Q Y.R.W.'.<XaXlXjXlXlXlXlXlXgXfXlXlX",
"lXlXlXlXlXlXlXgXhXgXgX6XoXQ.Y.R./.'.;XaXlXlXlXlXlXlXlXlXfXuXlXkX",
"lXkXlXlXlXlXlXgXgXhXlXlXgXlX0X0X6XfXlXlXlXhXlXlXlXlXlXlXgXgXlXlX",
"lXkXlXlXlXlXdXlXlXlXlXlXlXlXjXlXlXdXlXlXlXlXgXgXlXlXlXlXgXgXlXlX"
};
