/* XPM */
static char *result[] = {
/* columns rows colors chars-per-pixel */
"32 32 175 2 ",
"   c #020201",
".  c #00010A",
"X  c #241E00",
"o  c #22211B",
"O  c #393511",
"+  c #222326",
"@  c #3C3A2A",
"#  c #3C3C3A",
"$  c #433B07",
"%  c #675600",
"&  c #605417",
"*  c #766407",
"=  c #796A10",
"-  c #7C4439",
";  c #67613F",
":  c #666765",
">  c #6A6B73",
",  c #9D2E0B",
"<  c #8A3219",
"1  c #9A3815",
"2  c #A9391C",
"3  c #AC4E08",
"4  c #B7421C",
"5  c #BA511C",
"6  c #BB7800",
"7  c #B47D1C",
"8  c #B8433E",
"9  c #99742D",
"0  c #A87B2E",
"q  c #A67F3B",
"w  c #C45610",
"e  c #C45C1D",
"r  c #C1650C",
"t  c #CA7509",
"y  c #C3621C",
"u  c #C66C1C",
"i  c #CD7219",
"p  c #8B6C6C",
"a  c #907364",
"s  c #A47E77",
"d  c #C55E5F",
"f  c #CC6871",
"g  c #CA647C",
"h  c #7F807F",
"j  c #998511",
"k  c #BB9D0C",
"l  c #BE8313",
"z  c #BB8918",
"x  c #B99A1A",
"c  c #9C8121",
"v  c #B7882A",
"b  c #B69523",
"n  c #B18A30",
"m  c #A4943F",
"M  c #AC993C",
"N  c #B7A135",
"B  c #C79C0C",
"V  c #CA8814",
"C  c #D88C1A",
"Z  c #C39B1A",
"A  c #D39414",
"S  c #DE9C13",
"D  c #D9971A",
"F  c #E39C15",
"G  c #E19A1D",
"H  c #C6A60C",
"J  c #C9AC0C",
"K  c #DFA30C",
"L  c #CFB10F",
"P  c #D4B20B",
"I  c #DAB50C",
"U  c #CCAD14",
"Y  c #C5A91A",
"T  c #CFB617",
"R  c #DCBC15",
"E  c #E8BF00",
"W  c #E3BE0C",
"Q  c #E4A818",
"!  c #E8BA1D",
"~  c #F6B519",
"^  c #F2BC1B",
"/  c #D89724",
"(  c #E09E26",
")  c #C2A722",
"_  c #E6A527",
"`  c #E8A622",
"'  c #E4AB23",
"]  c #ECB424",
"[  c #E9AA36",
"{  c #E5C306",
"}  c #ECC604",
"|  c #EECB05",
" . c #EBC509",
".. c #F2CA06",
"X. c #F4C70A",
"o. c #FBD30B",
"O. c #FFDB0E",
"+. c #E9C317",
"@. c #ECCB15",
"#. c #EFC21D",
"$. c #F4CD15",
"%. c #F2C61A",
"&. c #F4CB19",
"*. c #FBCA1C",
"=. c #F5D217",
"-. c #F9D317",
";. c #FEDA15",
":. c #F7D119",
">. c #FAD41A",
",. c #FEDB1A",
"<. c #FFE115",
"1. c #FFE11B",
"2. c #FFEF1A",
"3. c #F2C121",
"4. c #FFDA20",
"5. c #FFE622",
"6. c #8F844A",
"7. c #9E8753",
"8. c #A78644",
"9. c #AB9A4A",
"0. c #B09F46",
"q. c #A68C58",
"w. c #A79756",
"e. c #B3A145",
"r. c #AFA15C",
"t. c #B1A051",
"y. c #9F8B69",
"u. c #9C956D",
"i. c #9D9779",
"p. c #A28F6F",
"a. c #A39B6E",
"s. c #A79977",
"d. c #ACA47E",
"f. c #B4AC7D",
"g. c #BBB27D",
"h. c #D7845A",
"j. c #C2AE4C",
"k. c #848482",
"l. c #A99B82",
"z. c #ADA884",
"x. c #B4A98C",
"c. c #B8B087",
"v. c #B9B28B",
"b. c #AEA29C",
"n. c #B5A790",
"m. c #B4AB92",
"M. c #B7B19C",
"N. c #BBB39A",
"B. c #BCB79A",
"V. c #9A9CA3",
"C. c #BFBBA5",
"Z. c #B4B4B4",
"A. c #BAB4B9",
"S. c #BDBDBB",
"D. c #C3BFA7",
"F. c #C0BEB4",
"G. c #C1BEB9",
"H. c #C4C2BB",
"J. c #C9C5B8",
"K. c #C4C4C4",
"L. c #CECCC5",
"P. c #CDCED1",
"I. c #D2D3D6",
"U. c #DCDCD9",
"Y. c #DBDCE3",
"T. c gray89",
"R. c #E7E9EB",
"E. c #E6E9F2",
"W. c #EBEEF6",
"Q. c #EBEEFA",
"!. c #EEF2FB",
"~. c #F3F3F3",
"^. c #F3F5FE",
"/. c #F5FAFE",
"(. c #FEFEFE",
/* pixels */
"(.(.(.(.(.(.(.(.(.(.(.(.(.(.(.(.(.(.(.(.(.(.(.(.(.(.(.(.(.(.(.(.",
"(.(.(.(.(.(.(.(.(.(.(.(.(.(.(.(.(.(.(.(.(.(.(.(.(.(.(.(.~.(.(.(.",
"(.(.(.(.(.(.(.(.(.(.(.(.(.(.(.(.(.(.(.(.(.(.(./.(./.Y.B.m J.(./.",
"(.(.(.(.(.(.(.(.(.(.(.(.(.(.(.(.(.(.(.(.(.(.(.^.H.r.Y  .} v.(.(.",
"(.(.(.(.(.(.(.(.(.(.(.(.(.(.(.(.(.(.(.(.(./.H.0.P o.,.4.} v.(.(.",
"(.(.(.(.(.(.(.(.(.(.(.(.(.(.(.(.(.(./.(.U.w.P o.,.>.=.>.} c.(.(.",
"(.(.(.(.(.(.(./.(.(.(.(.(.(.(.(.(.(.(.F.x o.,.>.&.:.:.>. .v.(.(.",
"(.(.(.(.(.(.(.(.(.(.(.(.(.(.(.(.(.~.h k <.>.>.-.-.-.,.,.E c.(.~.",
"(.(.(.(./.(.S.: (.(.(.(.(.(./.(.R.#   T >.&.%.3.3.^ Q z q.U.(.(.",
"(.(.(.(.(.~.+   U.(.(.(.(.(.(.T.@   . j 4./ / D V 0 s.P./.(.(.(.",
"(.(.(./.(.k.    K.(./.(.(.(.Q.e.H   + a.X._ D 8.C.R.(.(.(.(.(.(.",
"(.(.(.(.^.M *   Z.(.(.(.(.(.z.{ 5.X > Y.U 4.7 H.(./.(.(.(.(.(.(.",
"(.(.(.(.Y.Y 2.% V.(.(.(.(.K.H ,.,.$ K.(.9.;.A m.(./.(.(.(.(.(.(.",
"(.(.(.(.I.L ,.{ M.(./.(.^.9.o.>.o.6.^.D.Y ,.K y.(.(.(.(.(.(.(.(.",
"(.(.(.(.J.I 1.W B.(.W.E.Z.L ,.,.J L.!.c ~ D 7.T.(.(.(.(.(.(.(.(.",
"(.(./.(.H.I 1.I i.g.N ) U =.>.W z.(.(.H.l C a (.(.(.(.(.(.(.(.(.",
"(.(.(.(.L.P ,.! J ..O.,.,.-.-.x 7.s C.^.m.2 , b.(.(.(.(.(.(.(.(.",
"(.(.(.(.Y.Y ,.=.,.:.:.:.$.>.&.-.o.t 3 n p 2 1 b.(.(.(.(.(.(.(.(.",
"(.(.(.(.^.0.;.=.&.-.-.-.:.o.;.-.>.1.C i r e < G.(.(.(.(.(.(.(.(.",
"(.(.(./.(.f.| >.:.-.:.&.;.j.& ;.-.$.,.Q D C w - /.(.(.(.(.(.(.(.",
"(.(.(.(.(.f...>.;.-.-.-.-.; O $.&.=.:.,.&.*.B A.(.(.(.(.(.(.(.(.",
"(.(.(.(.(.N.| x t.$.&.=.,.W @.y e :.-.:.-.-. .v.(.(.(.(.(.(.(.(.",
"(.(.(./.(.P.R = o $.+.A %.,.*.2 y >.&.:.=.:.;.9./.(.(.(.(.(.(.(.",
"(.(.(.(.(.!.9.X.@.<.D 8 f [ ;.i V >.*.&.%.%.-.v R.(.(.(.(.(.(.(.",
"(.(.(.(.~.f.Z 4 C -.Q d g h.;.-.Q ! ,.,.] / Q q Q.(.(.(.(.(.(.(.",
"(.(.(.(.d.I ;.u 5 -.<.[ g h.$.' ( ( S A V V G v I.(.(.(.(.(.(.(.",
"(.(.(.i.P ,.=.=.&.#.*.} _ [ ` G F 9 l.n.C.G.q.6 x.(.(.(.(.(.(.(.",
"(.(.(.u.| <.,.,.^ C 7 p.8.z l q.8.s.(.(.(.(.^.s.F.(.(.(.(.(.(.(.",
"(.(.(.H.j Y U b q s.I.(.~.K.P.~.^./.(.(.(./.(.(.(.(.(.(.(.(.(.(.",
"(.(.(.~.A.Y.U.Y.W.(.(.(.(.(.(.(.(.(.(.(.(.(.(.(.(.(.(.(.(.(.(.(.",
"(.(.(.(.(.(.(.(.(.(.(.(.(.(.(.(.(.(.(.(.(.(.(.(.(.(.(.(.(.(.(.(.",
"(.(.(.(.(.(./.(.(.(.(.(.(.(.(.(.(.(.(.(.(.(.(.(.(.(.(.(.(.(.(.(."
};
